G04*
G04 #@! TF.GenerationSoftware,Altium Limited,Altium Designer,22.7.1 (60)*
G04*
G04 Layer_Color=8388736*
%FSLAX43Y43*%
%MOMM*%
G71*
G04*
G04 #@! TF.SameCoordinates,7409474F-4F03-4729-A62F-D4D918F31FF1*
G04*
G04*
G04 #@! TF.FilePolarity,Negative*
G04*
G01*
G75*
%ADD16O,0.700X0.300*%
G04:AMPARAMS|DCode=17|XSize=0.5mm|YSize=1.15mm|CornerRadius=0.15mm|HoleSize=0mm|Usage=FLASHONLY|Rotation=90.000|XOffset=0mm|YOffset=0mm|HoleType=Round|Shape=RoundedRectangle|*
%AMROUNDEDRECTD17*
21,1,0.500,0.850,0,0,90.0*
21,1,0.200,1.150,0,0,90.0*
1,1,0.300,0.425,0.100*
1,1,0.300,0.425,-0.100*
1,1,0.300,-0.425,-0.100*
1,1,0.300,-0.425,0.100*
%
%ADD17ROUNDEDRECTD17*%
G04:AMPARAMS|DCode=18|XSize=2mm|YSize=1.8mm|CornerRadius=0.56mm|HoleSize=0mm|Usage=FLASHONLY|Rotation=0.000|XOffset=0mm|YOffset=0mm|HoleType=Round|Shape=RoundedRectangle|*
%AMROUNDEDRECTD18*
21,1,2.000,0.680,0,0,0.0*
21,1,0.880,1.800,0,0,0.0*
1,1,1.120,0.440,-0.340*
1,1,1.120,-0.440,-0.340*
1,1,1.120,-0.440,0.340*
1,1,1.120,0.440,0.340*
%
%ADD18ROUNDEDRECTD18*%
G04:AMPARAMS|DCode=19|XSize=2mm|YSize=3mm|CornerRadius=0.288mm|HoleSize=0mm|Usage=FLASHONLY|Rotation=0.000|XOffset=0mm|YOffset=0mm|HoleType=Round|Shape=RoundedRectangle|*
%AMROUNDEDRECTD19*
21,1,2.000,2.425,0,0,0.0*
21,1,1.425,3.000,0,0,0.0*
1,1,0.575,0.713,-1.212*
1,1,0.575,-0.713,-1.212*
1,1,0.575,-0.713,1.212*
1,1,0.575,0.713,1.212*
%
%ADD19ROUNDEDRECTD19*%
G04:AMPARAMS|DCode=20|XSize=1.45mm|YSize=0.5mm|CornerRadius=0.1mm|HoleSize=0mm|Usage=FLASHONLY|Rotation=0.000|XOffset=0mm|YOffset=0mm|HoleType=Round|Shape=RoundedRectangle|*
%AMROUNDEDRECTD20*
21,1,1.450,0.300,0,0,0.0*
21,1,1.250,0.500,0,0,0.0*
1,1,0.200,0.625,-0.150*
1,1,0.200,-0.625,-0.150*
1,1,0.200,-0.625,0.150*
1,1,0.200,0.625,0.150*
%
%ADD20ROUNDEDRECTD20*%
G04:AMPARAMS|DCode=21|XSize=1.02mm|YSize=1.18mm|CornerRadius=0.165mm|HoleSize=0mm|Usage=FLASHONLY|Rotation=180.000|XOffset=0mm|YOffset=0mm|HoleType=Round|Shape=RoundedRectangle|*
%AMROUNDEDRECTD21*
21,1,1.020,0.850,0,0,180.0*
21,1,0.690,1.180,0,0,180.0*
1,1,0.330,-0.345,0.425*
1,1,0.330,0.345,0.425*
1,1,0.330,0.345,-0.425*
1,1,0.330,-0.345,-0.425*
%
%ADD21ROUNDEDRECTD21*%
G04:AMPARAMS|DCode=22|XSize=0.71mm|YSize=1.45mm|CornerRadius=0.126mm|HoleSize=0mm|Usage=FLASHONLY|Rotation=90.000|XOffset=0mm|YOffset=0mm|HoleType=Round|Shape=RoundedRectangle|*
%AMROUNDEDRECTD22*
21,1,0.710,1.198,0,0,90.0*
21,1,0.458,1.450,0,0,90.0*
1,1,0.253,0.599,0.229*
1,1,0.253,0.599,-0.229*
1,1,0.253,-0.599,-0.229*
1,1,0.253,-0.599,0.229*
%
%ADD22ROUNDEDRECTD22*%
G04:AMPARAMS|DCode=23|XSize=1.04mm|YSize=1.13mm|CornerRadius=0.168mm|HoleSize=0mm|Usage=FLASHONLY|Rotation=0.000|XOffset=0mm|YOffset=0mm|HoleType=Round|Shape=RoundedRectangle|*
%AMROUNDEDRECTD23*
21,1,1.040,0.795,0,0,0.0*
21,1,0.705,1.130,0,0,0.0*
1,1,0.335,0.353,-0.398*
1,1,0.335,-0.353,-0.398*
1,1,0.335,-0.353,0.398*
1,1,0.335,0.353,0.398*
%
%ADD23ROUNDEDRECTD23*%
G04:AMPARAMS|DCode=24|XSize=1.02mm|YSize=1.18mm|CornerRadius=0.165mm|HoleSize=0mm|Usage=FLASHONLY|Rotation=270.000|XOffset=0mm|YOffset=0mm|HoleType=Round|Shape=RoundedRectangle|*
%AMROUNDEDRECTD24*
21,1,1.020,0.850,0,0,270.0*
21,1,0.690,1.180,0,0,270.0*
1,1,0.330,-0.425,-0.345*
1,1,0.330,-0.425,0.345*
1,1,0.330,0.425,0.345*
1,1,0.330,0.425,-0.345*
%
%ADD24ROUNDEDRECTD24*%
G04:AMPARAMS|DCode=25|XSize=1.38mm|YSize=1.97mm|CornerRadius=0.21mm|HoleSize=0mm|Usage=FLASHONLY|Rotation=180.000|XOffset=0mm|YOffset=0mm|HoleType=Round|Shape=RoundedRectangle|*
%AMROUNDEDRECTD25*
21,1,1.380,1.550,0,0,180.0*
21,1,0.960,1.970,0,0,180.0*
1,1,0.420,-0.480,0.775*
1,1,0.420,0.480,0.775*
1,1,0.420,0.480,-0.775*
1,1,0.420,-0.480,-0.775*
%
%ADD25ROUNDEDRECTD25*%
G04:AMPARAMS|DCode=26|XSize=2.05mm|YSize=3.5mm|CornerRadius=0.294mm|HoleSize=0mm|Usage=FLASHONLY|Rotation=90.000|XOffset=0mm|YOffset=0mm|HoleType=Round|Shape=RoundedRectangle|*
%AMROUNDEDRECTD26*
21,1,2.050,2.913,0,0,90.0*
21,1,1.463,3.500,0,0,90.0*
1,1,0.588,1.456,0.731*
1,1,0.588,1.456,-0.731*
1,1,0.588,-1.456,-0.731*
1,1,0.588,-1.456,0.731*
%
%ADD26ROUNDEDRECTD26*%
G04:AMPARAMS|DCode=27|XSize=1.31mm|YSize=1.56mm|CornerRadius=0.201mm|HoleSize=0mm|Usage=FLASHONLY|Rotation=0.000|XOffset=0mm|YOffset=0mm|HoleType=Round|Shape=RoundedRectangle|*
%AMROUNDEDRECTD27*
21,1,1.310,1.158,0,0,0.0*
21,1,0.907,1.560,0,0,0.0*
1,1,0.403,0.454,-0.579*
1,1,0.403,-0.454,-0.579*
1,1,0.403,-0.454,0.579*
1,1,0.403,0.454,0.579*
%
%ADD27ROUNDEDRECTD27*%
%ADD28R,2.780X2.780*%
%ADD29O,0.300X0.700*%
G04:AMPARAMS|DCode=30|XSize=2.843mm|YSize=2.259mm|CornerRadius=0.32mm|HoleSize=0mm|Usage=FLASHONLY|Rotation=0.000|XOffset=0mm|YOffset=0mm|HoleType=Round|Shape=RoundedRectangle|*
%AMROUNDEDRECTD30*
21,1,2.843,1.619,0,0,0.0*
21,1,2.203,2.259,0,0,0.0*
1,1,0.640,1.102,-0.810*
1,1,0.640,-1.102,-0.810*
1,1,0.640,-1.102,0.810*
1,1,0.640,1.102,0.810*
%
%ADD30ROUNDEDRECTD30*%
G04:AMPARAMS|DCode=31|XSize=1.1mm|YSize=1.5mm|CornerRadius=0.175mm|HoleSize=0mm|Usage=FLASHONLY|Rotation=90.000|XOffset=0mm|YOffset=0mm|HoleType=Round|Shape=RoundedRectangle|*
%AMROUNDEDRECTD31*
21,1,1.100,1.150,0,0,90.0*
21,1,0.750,1.500,0,0,90.0*
1,1,0.350,0.575,0.375*
1,1,0.350,0.575,-0.375*
1,1,0.350,-0.575,-0.375*
1,1,0.350,-0.575,0.375*
%
%ADD31ROUNDEDRECTD31*%
G04:AMPARAMS|DCode=32|XSize=1.31mm|YSize=1.56mm|CornerRadius=0.201mm|HoleSize=0mm|Usage=FLASHONLY|Rotation=270.000|XOffset=0mm|YOffset=0mm|HoleType=Round|Shape=RoundedRectangle|*
%AMROUNDEDRECTD32*
21,1,1.310,1.158,0,0,270.0*
21,1,0.907,1.560,0,0,270.0*
1,1,0.403,-0.579,-0.454*
1,1,0.403,-0.579,0.454*
1,1,0.403,0.579,0.454*
1,1,0.403,0.579,-0.454*
%
%ADD32ROUNDEDRECTD32*%
G04:AMPARAMS|DCode=33|XSize=1.1mm|YSize=1.5mm|CornerRadius=0.175mm|HoleSize=0mm|Usage=FLASHONLY|Rotation=0.000|XOffset=0mm|YOffset=0mm|HoleType=Round|Shape=RoundedRectangle|*
%AMROUNDEDRECTD33*
21,1,1.100,1.150,0,0,0.0*
21,1,0.750,1.500,0,0,0.0*
1,1,0.350,0.375,-0.575*
1,1,0.350,-0.375,-0.575*
1,1,0.350,-0.375,0.575*
1,1,0.350,0.375,0.575*
%
%ADD33ROUNDEDRECTD33*%
G04:AMPARAMS|DCode=34|XSize=1.63mm|YSize=1.12mm|CornerRadius=0.178mm|HoleSize=0mm|Usage=FLASHONLY|Rotation=270.000|XOffset=0mm|YOffset=0mm|HoleType=Round|Shape=RoundedRectangle|*
%AMROUNDEDRECTD34*
21,1,1.630,0.765,0,0,270.0*
21,1,1.275,1.120,0,0,270.0*
1,1,0.355,-0.383,-0.638*
1,1,0.355,-0.383,0.638*
1,1,0.355,0.383,0.638*
1,1,0.355,0.383,-0.638*
%
%ADD34ROUNDEDRECTD34*%
G04:AMPARAMS|DCode=35|XSize=2.18mm|YSize=3.91mm|CornerRadius=0.31mm|HoleSize=0mm|Usage=FLASHONLY|Rotation=0.000|XOffset=0mm|YOffset=0mm|HoleType=Round|Shape=RoundedRectangle|*
%AMROUNDEDRECTD35*
21,1,2.180,3.290,0,0,0.0*
21,1,1.560,3.910,0,0,0.0*
1,1,0.620,0.780,-1.645*
1,1,0.620,-0.780,-1.645*
1,1,0.620,-0.780,1.645*
1,1,0.620,0.780,1.645*
%
%ADD35ROUNDEDRECTD35*%
G04:AMPARAMS|DCode=36|XSize=11.53mm|YSize=8.99mm|CornerRadius=1.161mm|HoleSize=0mm|Usage=FLASHONLY|Rotation=0.000|XOffset=0mm|YOffset=0mm|HoleType=Round|Shape=RoundedRectangle|*
%AMROUNDEDRECTD36*
21,1,11.530,6.668,0,0,0.0*
21,1,9.208,8.990,0,0,0.0*
1,1,2.322,4.604,-3.334*
1,1,2.322,-4.604,-3.334*
1,1,2.322,-4.604,3.334*
1,1,2.322,4.604,3.334*
%
%ADD36ROUNDEDRECTD36*%
G04:AMPARAMS|DCode=37|XSize=1.55mm|YSize=3.53mm|CornerRadius=0.231mm|HoleSize=0mm|Usage=FLASHONLY|Rotation=270.000|XOffset=0mm|YOffset=0mm|HoleType=Round|Shape=RoundedRectangle|*
%AMROUNDEDRECTD37*
21,1,1.550,3.068,0,0,270.0*
21,1,1.087,3.530,0,0,270.0*
1,1,0.463,-1.534,-0.544*
1,1,0.463,-1.534,0.544*
1,1,0.463,1.534,0.544*
1,1,0.463,1.534,-0.544*
%
%ADD37ROUNDEDRECTD37*%
G04:AMPARAMS|DCode=38|XSize=2mm|YSize=1.3mm|CornerRadius=0.41mm|HoleSize=0mm|Usage=FLASHONLY|Rotation=0.000|XOffset=0mm|YOffset=0mm|HoleType=Round|Shape=RoundedRectangle|*
%AMROUNDEDRECTD38*
21,1,2.000,0.480,0,0,0.0*
21,1,1.180,1.300,0,0,0.0*
1,1,0.820,0.590,-0.240*
1,1,0.820,-0.590,-0.240*
1,1,0.820,-0.590,0.240*
1,1,0.820,0.590,0.240*
%
%ADD38ROUNDEDRECTD38*%
%ADD39O,1.350X1.150*%
%ADD40C,1.751*%
%ADD41R,1.751X1.751*%
%ADD42C,2.800*%
%ADD43C,0.800*%
D16*
X14170Y22720D02*
D03*
Y23220D02*
D03*
X18070Y24220D02*
D03*
Y23720D02*
D03*
Y23220D02*
D03*
Y22720D02*
D03*
Y22220D02*
D03*
Y21720D02*
D03*
X14170D02*
D03*
Y22220D02*
D03*
Y23720D02*
D03*
Y24220D02*
D03*
D17*
X10625Y24100D02*
D03*
Y25400D02*
D03*
X8775Y24100D02*
D03*
X8775Y24750D02*
D03*
X8775Y25400D02*
D03*
X10625Y24750D02*
D03*
D18*
X2176Y28975D02*
D03*
X2176Y21125D02*
D03*
D19*
X2176Y25050D02*
D03*
D20*
X4851Y26350D02*
D03*
Y25700D02*
D03*
Y25050D02*
D03*
Y24400D02*
D03*
Y23750D02*
D03*
D21*
X22275Y26100D02*
D03*
X23875D02*
D03*
X15575Y27850D02*
D03*
X17175Y27850D02*
D03*
X17175Y29725D02*
D03*
X15575Y29725D02*
D03*
X19075Y33500D02*
D03*
X20675Y33500D02*
D03*
X19075Y42925D02*
D03*
X20675Y42925D02*
D03*
X20675Y44850D02*
D03*
X19075D02*
D03*
X19075Y46725D02*
D03*
X20675Y46725D02*
D03*
X17300Y35380D02*
D03*
X15700Y35380D02*
D03*
X19075Y35405D02*
D03*
X20675Y35405D02*
D03*
X15700Y42950D02*
D03*
X17300Y42950D02*
D03*
X17300Y44825D02*
D03*
X15700Y44825D02*
D03*
X15700Y46750D02*
D03*
X17300Y46750D02*
D03*
X20675Y31575D02*
D03*
X19075D02*
D03*
D22*
X20875Y28800D02*
D03*
X18875Y27850D02*
D03*
Y29750D02*
D03*
X21700Y38005D02*
D03*
X19700Y37055D02*
D03*
X19700Y38955D02*
D03*
X14675Y38005D02*
D03*
X16675Y38955D02*
D03*
X16675Y37055D02*
D03*
X22925Y29750D02*
D03*
Y27850D02*
D03*
X24925Y28800D02*
D03*
D23*
X19075Y41075D02*
D03*
X20675Y41075D02*
D03*
X15725Y41075D02*
D03*
X17325Y41075D02*
D03*
D24*
X7275Y22173D02*
D03*
X7275Y20573D02*
D03*
X23825Y33125D02*
D03*
X23825Y31525D02*
D03*
D25*
X9878Y38224D02*
D03*
X6878Y38224D02*
D03*
X1750Y38201D02*
D03*
X4750Y38201D02*
D03*
X4750Y31826D02*
D03*
X1750Y31826D02*
D03*
X9875Y43250D02*
D03*
X6875Y43250D02*
D03*
D26*
X8410Y27675D02*
D03*
Y31875D02*
D03*
D27*
X3100Y40725D02*
D03*
X4790Y40725D02*
D03*
X16540Y18470D02*
D03*
X14850Y18470D02*
D03*
X8525Y40725D02*
D03*
X6835Y40725D02*
D03*
D28*
X16120Y22970D02*
D03*
D29*
X14870Y24920D02*
D03*
X15370D02*
D03*
X15870D02*
D03*
X16370D02*
D03*
X16870D02*
D03*
X17370D02*
D03*
Y21020D02*
D03*
X16870D02*
D03*
X16370D02*
D03*
X15870D02*
D03*
X15370D02*
D03*
X14870D02*
D03*
D30*
X12575Y31555D02*
D03*
X12575Y27795D02*
D03*
D31*
X4753Y35900D02*
D03*
X4753Y34150D02*
D03*
D32*
X9232Y47330D02*
D03*
X9232Y45640D02*
D03*
X6950Y47325D02*
D03*
X6950Y45635D02*
D03*
X11650Y22210D02*
D03*
Y20520D02*
D03*
X9375Y22220D02*
D03*
Y20530D02*
D03*
D33*
X4950Y42925D02*
D03*
X3200Y42925D02*
D03*
D34*
X14725Y16170D02*
D03*
X16740Y16170D02*
D03*
D35*
X27924Y31893D02*
D03*
X33004Y31893D02*
D03*
X33000Y27300D02*
D03*
X27920Y27300D02*
D03*
D36*
X30464Y43073D02*
D03*
X30460Y16120D02*
D03*
D37*
X40800Y23408D02*
D03*
X40800Y17178D02*
D03*
X40800Y32638D02*
D03*
X40800Y26408D02*
D03*
X40800Y41868D02*
D03*
X40800Y35638D02*
D03*
D38*
X2176Y29225D02*
D03*
X2176Y20875D02*
D03*
D39*
X5176Y22825D02*
D03*
Y27275D02*
D03*
D40*
X46375Y19000D02*
D03*
Y28230D02*
D03*
X46375Y37460D02*
D03*
D41*
X46375Y21540D02*
D03*
Y30770D02*
D03*
X46375Y40000D02*
D03*
D42*
X47000Y47000D02*
D03*
Y12000D02*
D03*
X3000D02*
D03*
Y47000D02*
D03*
D43*
X15500Y23600D02*
D03*
X16800D02*
D03*
Y22400D02*
D03*
X15500D02*
D03*
M02*
