G04*
G04 #@! TF.GenerationSoftware,Altium Limited,Altium Designer,22.7.1 (60)*
G04*
G04 Layer_Physical_Order=2*
G04 Layer_Color=16711680*
%FSLAX43Y43*%
%MOMM*%
G71*
G04*
G04 #@! TF.SameCoordinates,7409474F-4F03-4729-A62F-D4D918F31FF1*
G04*
G04*
G04 #@! TF.FilePolarity,Positive*
G04*
G01*
G75*
%ADD12C,0.200*%
%ADD43C,0.800*%
%ADD45C,0.300*%
G04:AMPARAMS|DCode=70|XSize=1.9mm|YSize=1.2mm|CornerRadius=0.36mm|HoleSize=0mm|Usage=FLASHONLY|Rotation=0.000|XOffset=0mm|YOffset=0mm|HoleType=Round|Shape=RoundedRectangle|*
%AMROUNDEDRECTD70*
21,1,1.900,0.480,0,0,0.0*
21,1,1.180,1.200,0,0,0.0*
1,1,0.720,0.590,-0.240*
1,1,0.720,-0.590,-0.240*
1,1,0.720,-0.590,0.240*
1,1,0.720,0.590,0.240*
%
%ADD70ROUNDEDRECTD70*%
%ADD71O,1.250X1.050*%
%ADD72C,1.651*%
%ADD73R,1.651X1.651*%
%ADD74C,2.700*%
%ADD75C,0.700*%
%ADD76C,1.000*%
G04:AMPARAMS|DCode=77|XSize=1.05mm|YSize=1.07mm|CornerRadius=0.131mm|HoleSize=0mm|Usage=FLASHONLY|Rotation=0.000|XOffset=0mm|YOffset=0mm|HoleType=Round|Shape=RoundedRectangle|*
%AMROUNDEDRECTD77*
21,1,1.050,0.807,0,0,0.0*
21,1,0.788,1.070,0,0,0.0*
1,1,0.263,0.394,-0.404*
1,1,0.263,-0.394,-0.404*
1,1,0.263,-0.394,0.404*
1,1,0.263,0.394,0.404*
%
%ADD77ROUNDEDRECTD77*%
G36*
X44250Y47050D02*
Y46866D01*
X44298Y46503D01*
X44393Y46148D01*
X44533Y45809D01*
X44717Y45491D01*
X44940Y45200D01*
X45200Y44940D01*
X45491Y44717D01*
X45809Y44533D01*
X46148Y44393D01*
X46503Y44298D01*
X46866Y44250D01*
X47050Y44250D01*
X47050Y44250D01*
X49745Y44250D01*
Y14750D01*
X47050Y14750D01*
X46866Y14750D01*
X46503Y14702D01*
X46148Y14607D01*
X45809Y14467D01*
X45491Y14283D01*
X45200Y14060D01*
X44940Y13800D01*
X44717Y13509D01*
X44533Y13191D01*
X44393Y12852D01*
X44298Y12497D01*
X44250Y12134D01*
X44250Y11950D01*
X44250Y11950D01*
X44250Y11950D01*
X44250Y11950D01*
X44250Y9255D01*
X20000D01*
Y14246D01*
X20000Y14490D01*
X20000Y14553D01*
X20000D01*
X20000Y14627D01*
X20000Y27839D01*
X19987Y27968D01*
X19889Y28206D01*
X19706Y28389D01*
X19468Y28487D01*
X19339Y28500D01*
X19339Y28500D01*
X19339Y28500D01*
X7300Y28500D01*
X7183Y28488D01*
X6967Y28399D01*
X6801Y28233D01*
X6712Y28018D01*
X6712Y28017D01*
X6700Y27900D01*
X6700Y27900D01*
X6700Y27900D01*
Y26054D01*
X6573Y26013D01*
X6416Y26118D01*
X6201Y26161D01*
X5986Y26118D01*
X5804Y25997D01*
X5683Y25815D01*
X5640Y25600D01*
X5683Y25385D01*
X5804Y25203D01*
X5954Y25104D01*
X6057Y24764D01*
X6259Y24387D01*
X6530Y24056D01*
X6533Y24059D01*
X6533Y24059D01*
X6700Y23892D01*
X6700Y19332D01*
X6573Y19234D01*
X6534Y19242D01*
X6440D01*
Y18500D01*
Y17759D01*
X6534D01*
X6573Y17766D01*
X6700Y17668D01*
Y17383D01*
X6707Y17245D01*
X6761Y16974D01*
X6866Y16720D01*
X7019Y16490D01*
X7112Y16388D01*
X8346Y15154D01*
X8509Y15007D01*
X8872Y14763D01*
X9277Y14596D01*
X9706Y14511D01*
X9924Y14500D01*
X19873Y14500D01*
X19873Y14500D01*
D01*
X20000Y14373D01*
X20000Y14246D01*
X20000Y9255D01*
X5750D01*
X5750Y12638D01*
X5388Y13512D01*
X4512Y14388D01*
X3638Y14750D01*
X255D01*
Y44250D01*
X2950Y44250D01*
X3134D01*
X3497Y44298D01*
X3852Y44393D01*
X4191Y44533D01*
X4509Y44717D01*
X4800Y44940D01*
X5060Y45200D01*
X5283Y45491D01*
X5467Y45809D01*
X5607Y46148D01*
X5702Y46503D01*
X5750Y46866D01*
Y47050D01*
X5750Y47050D01*
X5750Y49745D01*
X44250D01*
X44250Y47050D01*
D02*
G37*
G36*
X19150Y28250D02*
X19150Y28250D01*
X19151D01*
X19268Y28247D01*
X19462Y28166D01*
X19616Y28012D01*
X19700Y27809D01*
X19700Y27700D01*
X19700Y15300D01*
X19700D01*
X19700Y15201D01*
X19624Y15017D01*
X19483Y14876D01*
X19299Y14800D01*
X19200D01*
X9641Y14800D01*
Y14800D01*
X9536Y14800D01*
X9331Y14841D01*
X9137Y14921D01*
X8962Y15038D01*
X7341Y16659D01*
X7341Y16659D01*
X7254Y16749D01*
X7133Y16931D01*
X7045Y17143D01*
X7000Y17368D01*
X7000Y17483D01*
Y17723D01*
X7127Y17791D01*
X7137Y17784D01*
X7266Y17759D01*
X7360D01*
Y18500D01*
Y19241D01*
X7266D01*
X7137Y19216D01*
X7127Y19209D01*
X7000Y19277D01*
Y23078D01*
X7127Y23146D01*
X7185Y23107D01*
X7400Y23064D01*
X7615Y23107D01*
X7797Y23228D01*
X7918Y23410D01*
X7961Y23625D01*
X7918Y23840D01*
X7797Y24022D01*
X7615Y24143D01*
X7400Y24186D01*
X7293Y24164D01*
X7000Y24458D01*
Y27700D01*
X7000Y27700D01*
X7000Y27700D01*
X7004Y27818D01*
X7084Y28012D01*
X7238Y28166D01*
X7441Y28250D01*
X7550Y28250D01*
X19150Y28250D01*
X19150Y28250D01*
D02*
G37*
%LPC*%
G36*
X47200Y41029D02*
X46675D01*
Y40300D01*
X47404D01*
Y40826D01*
X47389Y40904D01*
X47345Y40970D01*
X47279Y41014D01*
X47200Y41029D01*
D02*
G37*
G36*
X46075D02*
X45549D01*
X45471Y41014D01*
X45405Y40970D01*
X45361Y40904D01*
X45346Y40826D01*
Y40300D01*
X46075D01*
Y41029D01*
D02*
G37*
G36*
X19075Y40486D02*
X18860Y40443D01*
X18678Y40322D01*
X18557Y40140D01*
X18514Y39925D01*
X18524Y39875D01*
X18270Y39577D01*
X18032Y39189D01*
X17858Y38769D01*
X17752Y38326D01*
X17716Y37873D01*
X17718D01*
Y37448D01*
X17678Y37422D01*
X17557Y37240D01*
X17514Y37025D01*
X17557Y36810D01*
X17678Y36628D01*
X17860Y36507D01*
X18075Y36464D01*
X18290Y36507D01*
X18472Y36628D01*
X18593Y36810D01*
X18636Y37025D01*
X18593Y37240D01*
X18472Y37422D01*
X18432Y37448D01*
Y37873D01*
X18429Y37889D01*
X18469Y38300D01*
X18594Y38710D01*
X18796Y39088D01*
X19030Y39373D01*
X19075Y39364D01*
X19290Y39407D01*
X19472Y39528D01*
X19593Y39710D01*
X19636Y39925D01*
X19593Y40140D01*
X19472Y40322D01*
X19290Y40443D01*
X19075Y40486D01*
D02*
G37*
G36*
X47404Y39700D02*
X46675D01*
Y38971D01*
X47200D01*
X47279Y38986D01*
X47345Y39030D01*
X47389Y39096D01*
X47404Y39175D01*
Y39700D01*
D02*
G37*
G36*
X46075D02*
X45346D01*
Y39175D01*
X45361Y39096D01*
X45405Y39030D01*
X45471Y38986D01*
X45549Y38971D01*
X46075D01*
Y39700D01*
D02*
G37*
G36*
X46375Y38494D02*
X46107Y38459D01*
X45858Y38356D01*
X45644Y38191D01*
X45479Y37977D01*
X45376Y37728D01*
X45341Y37460D01*
X45376Y37192D01*
X45479Y36943D01*
X45644Y36729D01*
X45858Y36564D01*
X46107Y36461D01*
X46375Y36426D01*
X46643Y36461D01*
X46892Y36564D01*
X47106Y36729D01*
X47271Y36943D01*
X47374Y37192D01*
X47409Y37460D01*
X47374Y37728D01*
X47271Y37977D01*
X47106Y38191D01*
X46892Y38356D01*
X46643Y38459D01*
X46375Y38494D01*
D02*
G37*
G36*
X47200Y31799D02*
X46675D01*
Y31070D01*
X47404D01*
Y31596D01*
X47389Y31674D01*
X47345Y31740D01*
X47279Y31784D01*
X47200Y31799D01*
D02*
G37*
G36*
X46075D02*
X45549D01*
X45471Y31784D01*
X45405Y31740D01*
X45361Y31674D01*
X45346Y31596D01*
Y31070D01*
X46075D01*
Y31799D01*
D02*
G37*
G36*
X47404Y30470D02*
X46675D01*
Y29741D01*
X47200D01*
X47279Y29756D01*
X47345Y29800D01*
X47389Y29866D01*
X47404Y29945D01*
Y30470D01*
D02*
G37*
G36*
X46075D02*
X45346D01*
Y29945D01*
X45361Y29866D01*
X45405Y29800D01*
X45471Y29756D01*
X45549Y29741D01*
X46075D01*
Y30470D01*
D02*
G37*
G36*
X2766Y30036D02*
X2476D01*
Y29525D01*
X3325D01*
X3294Y29684D01*
X3170Y29869D01*
X2985Y29993D01*
X2766Y30036D01*
D02*
G37*
G36*
X1876D02*
X1586D01*
X1368Y29993D01*
X1182Y29869D01*
X1059Y29684D01*
X1027Y29525D01*
X1876D01*
Y30036D01*
D02*
G37*
G36*
X3325Y28925D02*
X2476D01*
Y28414D01*
X2766D01*
X2985Y28458D01*
X3170Y28581D01*
X3294Y28767D01*
X3325Y28925D01*
D02*
G37*
G36*
X1876D02*
X1027D01*
X1059Y28767D01*
X1182Y28581D01*
X1368Y28458D01*
X1586Y28414D01*
X1876D01*
Y28925D01*
D02*
G37*
G36*
X5476Y27977D02*
Y27575D01*
X5936D01*
X5909Y27641D01*
X5793Y27792D01*
X5642Y27908D01*
X5476Y27977D01*
D02*
G37*
G36*
X4876D02*
X4710Y27908D01*
X4559Y27792D01*
X4443Y27641D01*
X4416Y27575D01*
X4876D01*
Y27977D01*
D02*
G37*
G36*
X46375Y29264D02*
X46107Y29229D01*
X45858Y29126D01*
X45644Y28961D01*
X45479Y28747D01*
X45376Y28498D01*
X45341Y28230D01*
X45376Y27962D01*
X45479Y27713D01*
X45644Y27499D01*
X45858Y27334D01*
X46107Y27231D01*
X46375Y27196D01*
X46643Y27231D01*
X46892Y27334D01*
X47106Y27499D01*
X47271Y27713D01*
X47374Y27962D01*
X47409Y28230D01*
X47374Y28498D01*
X47271Y28747D01*
X47106Y28961D01*
X46892Y29126D01*
X46643Y29229D01*
X46375Y29264D01*
D02*
G37*
G36*
X5936Y26975D02*
X5476D01*
Y26573D01*
X5642Y26642D01*
X5793Y26758D01*
X5909Y26909D01*
X5936Y26975D01*
D02*
G37*
G36*
X4876D02*
X4416D01*
X4443Y26909D01*
X4559Y26758D01*
X4710Y26642D01*
X4876Y26573D01*
Y26975D01*
D02*
G37*
G36*
X5476Y23527D02*
Y23125D01*
X5936D01*
X5909Y23191D01*
X5793Y23342D01*
X5642Y23458D01*
X5476Y23527D01*
D02*
G37*
G36*
X4876D02*
X4710Y23458D01*
X4559Y23342D01*
X4443Y23191D01*
X4416Y23125D01*
X4876D01*
Y23527D01*
D02*
G37*
G36*
X5936Y22525D02*
X5476D01*
Y22123D01*
X5642Y22192D01*
X5793Y22308D01*
X5909Y22459D01*
X5936Y22525D01*
D02*
G37*
G36*
X4876D02*
X4416D01*
X4443Y22459D01*
X4559Y22308D01*
X4710Y22192D01*
X4876Y22123D01*
Y22525D01*
D02*
G37*
G36*
X47200Y22569D02*
X46675D01*
Y21840D01*
X47404D01*
Y22366D01*
X47389Y22444D01*
X47345Y22510D01*
X47279Y22554D01*
X47200Y22569D01*
D02*
G37*
G36*
X46075D02*
X45549D01*
X45471Y22554D01*
X45405Y22510D01*
X45361Y22444D01*
X45346Y22366D01*
Y21840D01*
X46075D01*
Y22569D01*
D02*
G37*
G36*
X2766Y21686D02*
X2476D01*
Y21175D01*
X3325D01*
X3294Y21333D01*
X3170Y21519D01*
X2985Y21643D01*
X2766Y21686D01*
D02*
G37*
G36*
X1876D02*
X1586D01*
X1368Y21643D01*
X1182Y21519D01*
X1059Y21333D01*
X1027Y21175D01*
X1876D01*
Y21686D01*
D02*
G37*
G36*
X47404Y21240D02*
X46675D01*
Y20511D01*
X47200D01*
X47279Y20526D01*
X47345Y20570D01*
X47389Y20636D01*
X47404Y20715D01*
Y21240D01*
D02*
G37*
G36*
X46075D02*
X45346D01*
Y20715D01*
X45361Y20636D01*
X45405Y20570D01*
X45471Y20526D01*
X45549Y20511D01*
X46075D01*
Y21240D01*
D02*
G37*
G36*
X3325Y20575D02*
X2476D01*
Y20064D01*
X2766D01*
X2985Y20108D01*
X3170Y20231D01*
X3294Y20417D01*
X3325Y20575D01*
D02*
G37*
G36*
X1876D02*
X1027D01*
X1059Y20417D01*
X1182Y20231D01*
X1368Y20108D01*
X1586Y20064D01*
X1876D01*
Y20575D01*
D02*
G37*
G36*
X5840Y19242D02*
X5746D01*
X5617Y19216D01*
X5507Y19143D01*
X5434Y19033D01*
X5409Y18904D01*
Y18800D01*
X5840D01*
Y19242D01*
D02*
G37*
G36*
X46375Y20034D02*
X46107Y19999D01*
X45858Y19896D01*
X45644Y19731D01*
X45479Y19517D01*
X45376Y19268D01*
X45341Y19000D01*
X45376Y18732D01*
X45479Y18483D01*
X45644Y18269D01*
X45858Y18104D01*
X46107Y18001D01*
X46375Y17966D01*
X46643Y18001D01*
X46892Y18104D01*
X47106Y18269D01*
X47271Y18483D01*
X47374Y18732D01*
X47409Y19000D01*
X47374Y19268D01*
X47271Y19517D01*
X47106Y19731D01*
X46892Y19896D01*
X46643Y19999D01*
X46375Y20034D01*
D02*
G37*
G36*
X5840Y18200D02*
X5409D01*
Y18096D01*
X5434Y17967D01*
X5507Y17857D01*
X5617Y17784D01*
X5746Y17759D01*
X5840D01*
Y18200D01*
D02*
G37*
G36*
X8054Y19241D02*
X7960D01*
Y18800D01*
X8392D01*
Y18904D01*
X8366Y19033D01*
X8293Y19143D01*
X8183Y19216D01*
X8054Y19241D01*
D02*
G37*
G36*
X8392Y18200D02*
X7960D01*
Y17759D01*
X8054D01*
X8183Y17784D01*
X8293Y17857D01*
X8366Y17967D01*
X8392Y18096D01*
Y18200D01*
D02*
G37*
G36*
X13200Y19661D02*
X12985Y19618D01*
X12804Y19497D01*
X12682Y19315D01*
X12639Y19100D01*
X12682Y18885D01*
X12804Y18703D01*
X12894Y18643D01*
Y18157D01*
X12804Y18097D01*
X12682Y17915D01*
X12639Y17700D01*
X12682Y17485D01*
X12804Y17303D01*
X12985Y17182D01*
X13200Y17139D01*
X13415Y17182D01*
X13597Y17303D01*
X13718Y17485D01*
X13761Y17700D01*
X13718Y17915D01*
X13597Y18097D01*
X13506Y18157D01*
Y18643D01*
X13597Y18703D01*
X13718Y18885D01*
X13761Y19100D01*
X13718Y19315D01*
X13597Y19497D01*
X13415Y19618D01*
X13200Y19661D01*
D02*
G37*
%LPD*%
D12*
X6201Y25600D02*
G03*
X6750Y24275I1873J0D01*
G01*
Y24275D02*
X7400Y23625D01*
X13200Y17700D02*
Y19100D01*
D43*
X1845Y40725D02*
D03*
X9780Y40725D02*
D03*
X1750Y36627D02*
D03*
X1725Y33425D02*
D03*
X9878Y36650D02*
D03*
X12575Y29600D02*
D03*
D45*
X18819Y39669D02*
G03*
X18075Y37873I1796J-1796D01*
G01*
X18819Y39669D02*
X19075Y39925D01*
X18075Y37025D02*
Y37873D01*
D70*
X2176Y29225D02*
D03*
X2176Y20875D02*
D03*
D71*
X5176Y22825D02*
D03*
Y27275D02*
D03*
D72*
X46375Y19000D02*
D03*
Y28230D02*
D03*
X46375Y37460D02*
D03*
D73*
X46375Y21540D02*
D03*
Y30770D02*
D03*
X46375Y40000D02*
D03*
D74*
X47000Y47000D02*
D03*
Y12000D02*
D03*
X3000D02*
D03*
Y47000D02*
D03*
D75*
X13375Y24750D02*
D03*
X7400Y23625D02*
D03*
X6201Y25600D02*
D03*
X7600Y24601D02*
D03*
X2200Y27084D02*
D03*
X2200Y22900D02*
D03*
X5800Y20600D02*
D03*
X24925Y26000D02*
D03*
X11355Y43274D02*
D03*
X21725Y27900D02*
D03*
X18950Y26925D02*
D03*
X17175Y26687D02*
D03*
X18075Y37025D02*
D03*
X19075Y39925D02*
D03*
X19700Y37935D02*
D03*
X16650Y38050D02*
D03*
X16565Y19693D02*
D03*
X9350Y19120D02*
D03*
X11650Y19135D02*
D03*
X6875Y48625D02*
D03*
X9232Y48555D02*
D03*
X15500Y23600D02*
D03*
X16800D02*
D03*
Y22400D02*
D03*
X15500D02*
D03*
X13200Y19100D02*
D03*
Y17700D02*
D03*
D76*
X23700Y13300D02*
D03*
Y15100D02*
D03*
Y16900D02*
D03*
Y18900D02*
D03*
X37200Y13300D02*
D03*
Y15100D02*
D03*
Y16900D02*
D03*
Y18900D02*
D03*
X34900Y21600D02*
D03*
X32725D02*
D03*
X30550D02*
D03*
X28375D02*
D03*
X26200D02*
D03*
X34900Y10600D02*
D03*
X32725D02*
D03*
X30550D02*
D03*
X28375D02*
D03*
X26200D02*
D03*
X24000Y21100D02*
D03*
X36800D02*
D03*
X24200Y11200D02*
D03*
X36800Y11300D02*
D03*
D77*
X7660Y18500D02*
D03*
X6140Y18500D02*
D03*
M02*
