M48
;Layer_Color=9474304
;FILE_FORMAT=4:3
METRIC,LZ
;TYPE=PLATED
T1F00S00C0.300
T2F00S00C0.400
T3F00S00C0.500
T6F00S00C0.889
;TYPE=NON_PLATED
T7F00S00C2.700
%
T01
X00022Y00229
X00022Y0027084
X0006201Y00256
X00076Y0024601
X00074Y0023625
X00058Y00206
X000935Y001912
X001165Y0019135
X00132Y00191
Y00177
X0016565Y0019693
X00168Y00224
Y00236
X00155
Y00224
X0013375Y002475
X0017175Y0026687
X001895Y0026925
X0021725Y00279
X0024925Y0026
X00197Y0037935
X0018075Y0037025
X001665Y003805
X0019075Y0039925
X0011355Y0043274
X0009232Y0048555
X0006875Y0048625
T02
X0001725Y0033425
X000175Y0036627
X0001845Y0040725
X000978Y0040725
X0009878Y003665
X0012575Y00296
T03
X003055Y00106
X0032725
X00349
X00368Y00113
X00372Y00133
Y00151
Y00169
Y00189
X00368Y00211
X00349Y00216
X0032725
X003055
X0028375
X00262
X0024Y00211
X00237Y00189
Y00169
Y00151
Y00133
X00242Y00112
X00262Y00106
X0028375
T06
X0046375Y0019
X0046375Y002154
X0046375Y002823
X0046375Y003077
X0046375Y003746
X0046375Y004
T07
X0047Y0012
X0003
Y0047
X0047
M30
